# xmcd CD database file
#
# Track frame offsets:
#	150
#	29110
#	58900
#	90089
#	115140
#	135476
#	163937
#	192162
#	215325
#	236845
#	257958
#
# Disc length: 3643 seconds
#
# Revision: 0
# Processed by: cddbd v1.5.2PL0 Copyright (c) Steve Scherf et al.
# Submitted via: CDex 1.51
#
DISCID=9e0e390b
DTITLE=Dave Hepler - 4
DYEAR=2001
DGENRE=Jazz
TTITLE0=Improv
TTITLE1=Rudy
TTITLE2=Two for the Road
TTITLE3=Stardust
TTITLE4=Up the Lazy River
TTITLE5=Skylark
TTITLE6=Fish K.
TTITLE7=Three Blind Mice
TTITLE8=Ain't Misbehavin'
TTITLE9=I'm Old Fashioned
TTITLE10=America
EXTD=YEAR: 2001
EXTT0=
EXTT1=
EXTT2=
EXTT3=
EXTT4=
EXTT5=
EXTT6=
EXTT7=
EXTT8=
EXTT9=
EXTT10=
PLAYORDER=
